<?xml version="1.0" encoding="UTF-8" standalone="no"?>
<svg
   width="500"
   height="500"
   viewBox="0 0 500 500"
   version="1.1"
   id="svg1"
   xmlns="http://www.w3.org/2000/svg"
   xmlns:svg="http://www.w3.org/2000/svg">
  <path
     id="path1"
     d="M 250.00064 0 A 250 250 0 0 0 0 250.00064 A 250 250 0 0 0 250.00064 499.99982 A 250 250 0 0 0 499.99982 250.00064 A 250 250 0 0 0 250.00064 0 z M 132.79989 193.58947 L 146.58993 193.58947 L 146.58993 267.70036 C 146.58993 278.80036 143.65965 287.52006 137.80965 293.88006 C 131.96965 300.23006 124.04987 303.41034 114.04987 303.41034 C 105.94987 303.41034 98.949861 301.20975 93.049861 296.80975 C 87.149861 292.40975 82.999893 286.30066 80.589893 278.50066 L 93.660702 273.08952 C 97.050702 284.49952 103.84987 290.20037 114.04987 290.20037 C 119.64987 290.20037 124.1802 288.22947 127.6202 284.27947 C 131.0702 280.31947 132.79989 275.20032 132.79989 268.91032 L 132.79989 193.58947 z M 166.80039 193.58947 L 180.59044 193.58947 L 217.94984 259.00065 L 218.55043 259.00065 L 255.90982 193.58947 L 269.69987 193.58947 L 269.69987 301.00067 L 255.90982 301.00067 L 255.90982 237.25063 L 256.50016 219.25062 L 255.90982 219.25062 L 222.30043 278.20037 L 214.19984 278.20037 L 180.59044 219.25062 L 180.00011 219.25062 L 180.59044 237.25063 L 180.59044 301.00067 L 166.80039 301.00067 L 166.80039 193.58947 z M 314.3 225.08949 C 324.49 225.08949 332.54064 227.81944 338.44064 233.27944 C 344.34064 238.72944 347.30002 246.20035 347.30002 255.70035 L 347.30002 301.00067 L 334.09005 301.00067 L 334.09005 290.79949 L 333.49972 290.79949 C 327.79972 299.19949 320.19941 303.41034 310.69941 303.41034 C 302.59941 303.41034 295.82055 301.00038 290.38055 296.20038 C 284.93055 291.40038 282.19939 285.40037 282.19939 278.20037 C 282.19939 270.60037 285.08026 264.54948 290.83026 260.04948 C 296.58026 255.54948 304.25004 253.29947 313.84004 253.29947 C 322.05004 253.29947 328.80005 254.79947 334.09005 257.79947 L 334.09005 254.66031 C 334.09005 249.86031 332.19034 245.78058 328.39034 242.44058 C 324.60034 239.09058 320.15 237.4103 315.05 237.4103 C 307.35 237.4103 301.24969 240.66031 296.74969 247.16031 L 284.59002 239.50063 C 291.30002 229.90063 301.2 225.08949 314.3 225.08949 z M 388.80053 225.08949 C 395.30053 225.08949 401.16968 226.65063 406.41968 229.75063 C 411.66968 232.86063 415.34996 237.01034 417.44996 242.20034 L 405.15992 247.29947 C 403.74992 244.19947 401.4703 241.77944 398.3103 240.02944 C 395.1603 238.27944 391.64024 237.4103 387.75024 237.4103 C 384.14024 237.4103 380.91029 238.31001 378.06029 240.11001 C 375.22029 241.90001 373.80052 244.10035 373.80052 246.70035 C 373.80052 250.90035 377.7499 253.90035 385.6599 255.70035 L 396.75024 258.54947 C 411.35024 262.14947 418.65992 269.49953 418.65992 280.58953 C 418.65992 286.99953 415.85025 292.40975 410.25025 296.80975 C 404.64025 301.20975 397.59057 303.41034 389.09057 303.41034 C 381.70057 303.41034 375.20056 301.47981 369.59056 297.61981 C 364.00056 293.76981 360.00055 288.70033 357.59055 282.41033 L 369.90989 277.16033 C 371.69989 281.55033 374.32025 284.9801 377.77025 287.4201 C 381.22025 289.8701 385.00057 291.08953 389.09057 291.08953 C 393.50057 291.08953 397.17938 290.15066 400.11938 288.25066 C 403.06938 286.36066 404.55054 284.11066 404.55054 281.50066 C 404.55054 276.80066 400.95024 273.36032 393.75024 271.16032 L 381.1599 268.00065 C 366.8499 264.40065 359.69993 257.49947 359.69993 247.29947 C 359.69993 240.59947 362.42962 235.23006 367.87962 231.17006 C 373.31962 227.12006 380.30053 225.08949 388.80053 225.08949 z M 316.09004 264.41032 C 310.50004 264.41032 305.83026 265.76036 302.08026 268.45036 C 298.33026 271.15036 296.4494 274.50066 296.4494 278.50066 C 296.4494 282.11066 297.96971 285.11066 301.01971 287.50066 C 304.06971 289.90066 307.6397 291.08953 311.7497 291.08953 C 317.5497 291.08953 322.71973 288.95033 327.26973 284.66033 C 331.81973 280.36033 334.09005 275.30065 334.09005 269.50065 C 329.80005 266.11065 323.80004 264.41032 316.09004 264.41032 z " />
</svg>
